# xmcd
#
# Track frame offsets:
#	150
#	13076
#	24066
#	35185
#	45568
#	55716
#	67482
#	77927
#	89438
#	102245
#
# Disc length: 1534 seconds
#
# Revision: 1
# Processed by: cddbd v1.5.1PL0 Copyright (c) Steve Scherf et al.
# Submitted via: audiograbber 1.83.01
#
DISCID=8105fc0a
DTITLE=David Houston and Tammy Wynette - My Elusive Dreams
DYEAR=1967
DGENRE=Country
TTITLE0=David Houston and Tammy Wynette - My Elusive Dreams
TTITLE1=David Houston and Tammy Wynette - I'll Take My Chances with You
TTITLE2=David Houston and Tammy Wynette - Hey, Good Lookin'
TTITLE3=Tammy Wynette - Set Me Free
TTITLE4=David Houston and Tammy Wynette - Together We Stand (Divided We Fail)
TTITLE5=David Houston and Tammy Wynette - Somethin' Stupid
TTITLE6=David Houston and Tammy Wynette - Back In Baby's Arms
TTITLE7=David Houston and Tammy Wynette - It's All Over
TTITLE8=David Houston - Clinging Vine
TTITLE9=David Houston and Tammy Wynette - Marriage on the Rocks
EXTD=Epic Stereo BN 26325/Mono LN 24325
EXTT0=
EXTT1=
EXTT2=
EXTT3=
EXTT4=
EXTT5=
EXTT6=
EXTT7=
EXTT8=
EXTT9=
PLAYORDER=
